<svg xmlns="http://www.w3.org/2000/svg" viewBox="0 0 615.3 220.7"><defs><style>.cls-1{fill:#00a99d;}.cls-2{font-size:77px;font-family:MyriadPro-Bold, Myriad Pro;font-weight:700;}.cls-2,.cls-3{fill:#fff;}.cls-4{font-size:119px;font-family:Quantify, Quantify;}.cls-5{letter-spacing:-0.04em;}.cls-6{letter-spacing:0em;}.cls-7{font-size:20px;fill:#72706c;font-family:BookmanOldStyle, Bookman Old Style;}</style></defs><title>LOGO-1</title><g id="Layer_2" data-name="Layer 2"><g id="Layer_1-2" data-name="Layer 1"><text></text><rect class="cls-1" y="55.95" width="61" height="61" rx="12" ry="12"/><text class="cls-2" transform="translate(6 105.95)">+</text><rect class="cls-1" y="125.95" width="61" height="61" rx="12" ry="12"/><rect class="cls-1" x="69" y="54.95" width="61" height="61" rx="12" ry="12"/><rect class="cls-1" x="69" y="124.95" width="61" height="61" rx="12" ry="12"/><rect x="77" y="81.95" width="45" height="9"/><rect x="8" y="151.95" width="45" height="9"/><circle cx="30" cy="141.95" r="6"/><circle cx="30" cy="169.95" r="6"/><rect class="cls-3" x="76" y="150.95" width="45" height="9" transform="translate(138.77 -24.12) rotate(45)"/><rect class="cls-3" x="76" y="150.95" width="45" height="9" transform="translate(278.07 195.73) rotate(135)"/><text class="cls-4" transform="translate(152 147.95)"><tspan class="cls-5">C</tspan><tspan class="cls-1" x="79.97" y="0">Y</tspan><tspan class="cls-6" x="159.94" y="0">F</tspan><tspan class="cls-1" x="221.58" y="0">R</tspan><tspan x="295.95" y="0">I</tspan><tspan class="cls-1" x="321.66" y="0">F</tspan></text><text class="cls-7" transform="translate(158 185.95)">Optimize And Accelerate Your Business</text><path class="cls-1" d="M171.46,55.86l37.35-17.16c16.33-7.5,32.7-14.93,49-22.56,2.7-1.26,4.32-1,6.4,1.12q12.53,12.9,25.48,25.39c1.19,1.15,4,2,5.29,1.45,22-10,43.83-20.21,65.71-30.41a15.17,15.17,0,0,0,1.83-1.25L355.77.95,393.39,0l-18,33.19-8.28-13.86c-1.67.68-3.18,1.22-4.63,1.9C340.36,31.65,318.18,42,296.15,52.63c-3.66,1.77-5.75,1.36-8.54-1.49-7.67-7.87-15.84-15.24-23.52-23.1-2.55-2.61-4.64-2.67-7.83-1.53-27.56,9.87-55.19,19.57-82.8,29.32l-1.74.64Z"/><text></text></g></g></svg>